PathFileType	4	(X/Y/Z)	28_2_9_p0_0-189_filt_butterworth.trc
DataRate	CameraRate	NumFrames	NumMarkers	Units	OrigDataRate	OrigDataStartFrame	OrigNumFrames
60.0	60.0	6	27	m	60.0	70	189
Frame#	Time	RHip			RKnee			RAnkle			RBigToe			RSmallToe			RHeel			LHip			LKnee			LAnkle			LBigToe			LSmallToe			LHeel			Neck			Head			Nose			RShoulder			RElbow			RWrist			RThumb			RIndex			RPinky			LShoulder			LElbow			LWrist			LThumb			LIndex			LPinky			
		X1	Y1	Z1	X2	Y2	Z2	X3	Y3	Z3	X4	Y4	Z4	X5	Y5	Z5	X6	Y6	Z6	X7	Y7	Z7	X8	Y8	Z8	X9	Y9	Z9	X10	Y10	Z10	X11	Y11	Z11	X12	Y12	Z12	X13	Y13	Z13	X14	Y14	Z14	X15	Y15	Z15	X16	Y16	Z16	X17	Y17	Z17	X18	Y18	Z18	X19	Y19	Z19	X20	Y20	Z20	X21	Y21	Z21	X22	Y22	Z22	X23	Y23	Z23	X24	Y24	Z24	X25	Y25	Z25	X26	Y26	Z26	X27	Y27	Z27	
70	1.1666666666666667	0.24226932242434285	0.6935935429831478	1.0157220434833174	0.24006731352139274	0.9258856604306342	1.3892812621413162	0.25672041836222464	1.0853847469504188	1.745639764595365	0.18678903792611182	0.9322116101175921	1.818405453840311	0.2619943247007772	0.9460477099373286	1.8116454323253277	0.24780081324730166	1.1394507874993252	1.780601220362671	0.04981682018782695	0.7226408883870781	1.0065698581595302	0.06345728203549161	0.9045872622177831	1.362829151818353	0.06759709621867122	1.1548026139425394	1.7657408030400188	0.03014586655403209	0.9051704606960627	1.8147622411475808	-0.017992877148989762	0.9656122531866569	1.799286737378195	0.08305112456047194	1.202470025776004	1.7934292140113777	0.15707415586971935	0.5554235896731001	0.46949221766600185	0.1549454739885977	0.46385253915200686	0.2647081941598058	0.11536465173160149	0.3992711887242284	0.3895268886395712	0.29120103525530305	0.5400326861733106	0.5741133751875416	0.33909602413258055	0.6067439181681188	0.8130975521484796	0.34646306564520823	0.6647297603488063	1.0444849113446109	0.30453182499191456	0.681594101743207	1.1599313010585282	0.31968632810801756	0.6728555726452049	1.16922094583433	0.35767770799539533	0.7036761888997322	1.1598371637643166	0.017868530001555076	0.5676799346110825	0.5289346712257228	-0.0708096117421359	0.4831223812513361	0.7307756273635305	0.03214693607001336	0.37097301480727507	0.5931975745468108	0.09222637642867153	0.31886003728899387	0.5391340863132298	0.08117798973905435	0.3002743909533632	0.5113874377325786	0.04273503979158601	0.27729721245442984	0.5468316993308828
71	1.1833333333333331	0.24213847325005214	0.6941496313162185	1.0171033311583606	0.24020649096731053	0.9270796110552986	1.3911142424820349	0.25699418055554624	1.0846007246491098	1.7440283739645719	0.18727896797329446	0.9331594985924503	1.8166387301206677	0.2620426532130099	0.9461014208081306	1.8116186287368623	0.24954392767581593	1.139654024304362	1.780581983744311	0.049758046278216964	0.7225317275450699	1.006508145183934	0.06258814930608392	0.9065329975930506	1.3646309452135963	0.06757092751497916	1.1548232716170586	1.7656678651761986	0.030144674332216903	0.9052015314568148	1.8147794940981008	-0.01803096058512894	0.9656139941839185	1.7993196293515057	0.08305455718592104	1.201919748283972	1.7924907942096757	0.15829789375730605	0.5556453674324633	0.4695768101336241	0.1551808236733697	0.46903663017316893	0.26099995268821774	0.11582356518924386	0.3977145961347365	0.3920506487586276	0.2911170063661711	0.5406480194557932	0.5747789705590182	0.3421406732258364	0.6072804233177388	0.8131182671149028	0.3464307643317368	0.6647032122623895	1.0442822957436817	0.3051779784947494	0.6819417151180658	1.160250003974089	0.3201185897552761	0.6736522348249088	1.1689926928953636	0.35679750721563314	0.7036231256617147	1.1602419193620843	0.020141547326654692	0.5693215576154198	0.529114907817245	-0.07072744760546038	0.4749611902508351	0.7274278442006088	0.028774539865647493	0.3654124883954298	0.5798988936427897	0.08500465694463433	0.33582168572668514	0.5169082801595856	0.07488692577099373	0.31348793995392216	0.4921725176050994	0.0399260707630886	0.2953937010021563	0.522807725233963
72	1.2	0.24204583206537184	0.6945851210087166	1.018198312002245	0.24045683684395186	0.9283555555331029	1.392971367515142	0.25720240691285706	1.08402865937527	1.7428408707093817	0.18833267034932707	0.9366716071744412	1.8168371961479852	0.26209627424337867	0.9461839855013345	1.8115986571223477	0.2509618093184368	1.1399786092290278	1.7806189434609605	0.04972313245306022	0.7224533606108064	1.0065014877412823	0.062003440933188506	0.9082649410540791	1.3661169784458265	0.06755524983712928	1.1548841704676311	1.7656841190773895	0.03015669031693305	0.9052711357155017	1.8148240958062711	-0.01805418111417099	0.9656312861146845	1.7993488951708718	0.08307594550808711	1.2016772005803913	1.7924228608316781	0.15891232007751627	0.5559055840775693	0.4696356387296314	0.1551365526669654	0.4718459060657687	0.2584427281577864	0.11681975585740505	0.3967622167685493	0.3940724900367514	0.29153821927013923	0.5424908115225155	0.5756420413310392	0.3447301205593939	0.6076445702448363	0.8130979686838594	0.346807493575203	0.6646632118720107	1.0441191554339844	0.3054606033534742	0.6818002039177034	1.1606623641991884	0.32002969741774884	0.6708693324486629	1.1702407736383278	0.356593250105763	0.7050654652658952	1.1611724176711733	0.021344218105526263	0.5695577716568344	0.5292270188066275	-0.07108843904218543	0.4711125044982726	0.7220268328103542	0.026551071300390673	0.35850962786554524	0.5711945248287025	0.07928808161878889	0.3486954962223995	0.4970669111653528	0.07079918888378521	0.32493097441455954	0.47950336145789596	0.039891616778953184	0.306535830718492	0.5035481017967284
73	1.2166666666666666	0.24205209402243258	0.6948136125167578	1.0186462375609358	0.24068307891752225	0.9292457461038638	1.3941618335452466	0.25729157263891667	1.0838215046220334	1.7423717846184732	0.18965510758812176	0.9415284690679676	1.817985026622607	0.26216254030502717	0.9463418957518962	1.8115849222987013	0.25151331978969493	1.140298340547874	1.780665848138511	0.049718290476442176	0.7224107863198601	1.0065024952409458	0.06252318064257747	0.9091331716538001	1.366557508319116	0.06751420631050901	1.154911238567553	1.7657472702372634	0.030174010889116837	0.9053097033496511	1.8148492469683664	-0.018055912503715625	0.9656359305006549	1.7993628379964623	0.08310353051025977	1.2016327799947082	1.7926344674225285	0.15901581796104836	0.5560863466711986	0.4693760041370899	0.1548304309381326	0.47270650778529727	0.25680874636072815	0.11790684252060128	0.39522755961356304	0.39463358357308886	0.2927023483457759	0.5461153434463919	0.5759840575372268	0.3462557923371622	0.6080423924428989	0.8134262940756403	0.34785549433034235	0.6649102963227264	1.0445426597706464	0.3054661235575926	0.6803551134517459	1.161958144865699	0.32005342065924763	0.6649596796411791	1.1722320672017466	0.356870710881662	0.7089631239417544	1.1623761555564482	0.022678847549643395	0.5693255987516893	0.5292089794490801	-0.07252451688043686	0.46918678921639145	0.7146054087461284	0.02508664111221946	0.35226779410829995	0.5662373710298854	0.0765391090460838	0.35696116052063753	0.4837621268577291	0.0690173868279943	0.33136488831506344	0.4716075592296498	0.040989324603120894	0.3099785857705981	0.49255980100794183
74	1.2333333333333334	0.24209507489635324	0.6948551408741214	1.0186460152971082	0.24080385375459956	0.9296307437217073	1.3945885184132056	0.2573007010041358	1.0838576825059167	1.7423613033850096	0.19065539654440491	0.9452563843117864	1.8189586526711532	0.2622467285164845	0.9465842269330751	1.8115793084824618	0.25105862430543674	1.1404247009708512	1.7806976824463596	0.04973636196425985	0.7223878659667954	1.0064925840326597	0.06397965278563626	0.9091305480770406	1.366318368609972	0.06744179789646285	1.1548918120939557	1.7658210855756185	0.03018578661886319	0.9052755651838872	1.8148341664511127	-0.018048144585612536	0.9656035159572105	1.799364602355894	0.08310474248457828	1.2016639543966436	1.792825522503126	0.1588187256234561	0.5560164839827187	0.4683724554051224	0.15438552196441493	0.4728915064523519	0.25587646673447584	0.11854748949283522	0.39297694267339833	0.3935717528548347	0.2942068075045465	0.5505729690535239	0.5753269993873182	0.3467511737966744	0.608554142638136	0.8139975089675021	0.3493351078656385	0.6657213657368439	1.0463224257908177	0.3054234487542831	0.6768716739950459	1.1641201232277134	0.32058930072234226	0.6587766272029524	1.1739601101148975	0.3571764198435732	0.7142990057496348	1.163312814969642	0.025106095322107523	0.5692533218294388	0.5290729172022665	-0.07565414166958731	0.46769089854585766	0.705468049002064	0.023810047311021307	0.3484105418890817	0.5616401634218657	0.07593428734222801	0.36190241288990993	0.4765597097783805	0.06891913366407945	0.33331069874355457	0.46434698947696235	0.04179731885361266	0.3096919317092365	0.4874436632847833
75	1.25	0.2421122352134232	0.694801356399824	1.0185170370694132	0.24084833964268598	0.929750465753483	1.3946070829248205	0.25728778412610737	1.0839599834095242	1.7424697554611264	0.19106928087392452	0.9467498846705373	1.819324371109949	0.2623359189010359	0.9468285009348989	1.8115817314537157	0.24966941626082886	1.140260467927155	1.7807169909302276	0.04976942446267531	0.7223777565215694	1.0064900924592426	0.06528185296972706	0.9086146038580267	1.366010478374353	0.06744320114255521	1.1548405461100772	1.7658427175292348	0.030187818958915688	0.9051962906444316	1.8147996978697418	-0.018033918509960077	0.9655454411622059	1.799363461770069	0.08306273910526094	1.2016943839158605	1.7929255043240087	0.15854616096272225	0.5555308224383536	0.46633845437167376	0.15411921675193477	0.4731795373079976	0.2554682837564509	0.1186427808611441	0.3918440340100607	0.3910846231336109	0.29526223345465347	0.5539383581354689	0.5738833410991273	0.346598708476721	0.6088818304972852	0.8147367899113218	0.35057028700294	0.6670160327396641	1.049592908706621	0.3054045502787797	0.6722714752994904	1.1662591454705677	0.32135079359918967	0.6552069742063678	1.175348233344715	0.35702020388103856	0.7185521225529423	1.1638096762818035	0.027843325167089265	0.5692718021978651	0.5287691393353935	-0.0808345272884334	0.46540357992170645	0.6953609484706662	0.022156264872704175	0.3472603004855696	0.5545656543245416	0.07591730312174239	0.36376309368166837	0.4729398854392145	0.06918713971021248	0.3329871403120875	0.4550639067566944	0.041252242355704016	0.3100262637854897	0.4839897877571907
